# xmcd
#
# Track frame offsets:
#	150
#	15278
#	29940
#	42988
#	58513
#	72081
#
# Disc length: 1099 seconds
#
# Revision: 1
# Processed by: cddbd v1.5.2PL0 Copyright (c) Steve Scherf et al.
# Submitted via: audiograbber 1.83.01
#
DISCID=4a044906
DTITLE=Milou Bakker and Joey Hendriks - Precriptive Silence
DYEAR=2012
DGENRE=Lokaal
TTITLE0=Milou Bakker and Joey Hendriks - Laissez-Moi
TTITLE1=Milou Bakker and Joey Hendriks - Endless Silence
TTITLE2=Milou Bakker and Joey Hendriks - Convenient
TTITLE3=Milou Bakker and Joey Hendriks - Over the Edge
TTITLE4=Milou Bakker and Joey Hendriks - Fading away
TTITLE5=Milou Bakker and Joey Hendriks - Neighbours
EXTD=
EXTT0=
EXTT1=
EXTT2=
EXTT3=
EXTT4=
EXTT5=
PLAYORDER=
